<?xml version="1.0" encoding="UTF-8" standalone="no"?>
<!DOCTYPE svg PUBLIC "-//W3C//DTD SVG 1.1//EN"
 "http://www.w3.org/Graphics/SVG/1.1/DTD/svg11.dtd">
<!-- Generated by graphviz version 2.38.0 (20140413.2041)
 -->
<!-- Title: controllers_diagram Pages: 1 -->
<svg width="671pt" height="492pt"
 viewBox="0.00 0.00 670.90 492.20" xmlns="http://www.w3.org/2000/svg" xmlns:xlink="http://www.w3.org/1999/xlink">
<g id="graph0" class="graph" transform="scale(1 1) rotate(0) translate(232.454 222.255)">
<title>controllers_diagram</title>
<polygon fill="white" stroke="none" points="-232.454,269.944 -232.454,-222.255 438.45,-222.255 438.45,269.944 -232.454,269.944"/>
<!-- _diagram_info -->
<g id="node1" class="node"><title>_diagram_info</title>
<text text-anchor="start" x="235.55" y="-59.1" font-family="Times,serif" font-size="13.00">Controllers diagram</text>
<text text-anchor="start" x="235.55" y="-46.1" font-family="Times,serif" font-size="13.00">Date: Sep 25 2014 &#45; 15:14</text>
<text text-anchor="start" x="235.55" y="-33.1" font-family="Times,serif" font-size="13.00">Migration version: 20140922211334</text>
<text text-anchor="start" x="235.55" y="-20.1" font-family="Times,serif" font-size="13.00">Generated by RailRoady 1.1.2</text>
<text text-anchor="start" x="235.55" y="-7.1" font-family="Times,serif" font-size="13.00">http://railroady.prestonlee.com</text>
</g>
<!-- ApplicationController -->
<g id="node2" class="node"><title>ApplicationController</title>
<path fill="none" stroke="black" d="M-76.5632,87.7886C-76.5632,87.7886 39.0784,87.7886 39.0784,87.7886 45.0784,87.7886 51.0784,81.7886 51.0784,75.7886 51.0784,75.7886 51.0784,-6.21139 51.0784,-6.21139 51.0784,-12.2114 45.0784,-18.2114 39.0784,-18.2114 39.0784,-18.2114 -76.5632,-18.2114 -76.5632,-18.2114 -82.5632,-18.2114 -88.5632,-12.2114 -88.5632,-6.21139 -88.5632,-6.21139 -88.5632,75.7886 -88.5632,75.7886 -88.5632,81.7886 -82.5632,87.7886 -76.5632,87.7886"/>
<text text-anchor="middle" x="-18.7424" y="-3.01139" font-family="Times,serif" font-size="14.00">ApplicationController</text>
<polyline fill="none" stroke="black" points="-88.5632,3.78861 51.0784,3.78861 "/>
<polyline fill="none" stroke="black" points="-88.5632,27.7886 51.0784,27.7886 "/>
<polyline fill="none" stroke="black" points="-88.5632,51.7886 51.0784,51.7886 "/>
<text text-anchor="start" x="-80.5632" y="66.9886" font-family="Times,serif" font-size="14.00">_layout</text>
<text text-anchor="start" x="-80.5632" y="80.9886" font-family="Times,serif" font-size="14.00">allow_iframe</text>
</g>
<!-- MediaInfosController -->
<g id="node3" class="node"><title>MediaInfosController</title>
<path fill="none" stroke="black" d="M75.5689,260.266C75.5689,260.266 189.652,260.266 189.652,260.266 195.652,260.266 201.652,254.266 201.652,248.266 201.652,248.266 201.652,70.2663 201.652,70.2663 201.652,64.2663 195.652,58.2663 189.652,58.2663 189.652,58.2663 75.5689,58.2663 75.5689,58.2663 69.5689,58.2663 63.5689,64.2663 63.5689,70.2663 63.5689,70.2663 63.5689,248.266 63.5689,248.266 63.5689,254.266 69.5689,260.266 75.5689,260.266"/>
<text text-anchor="middle" x="132.61" y="73.4663" font-family="Times,serif" font-size="14.00">MediaInfosController</text>
<polyline fill="none" stroke="black" points="63.5689,80.2663 201.652,80.2663 "/>
<text text-anchor="start" x="71.5689" y="95.4663" font-family="Times,serif" font-size="14.00">create</text>
<text text-anchor="start" x="71.5689" y="109.466" font-family="Times,serif" font-size="14.00">destroy</text>
<text text-anchor="start" x="71.5689" y="123.466" font-family="Times,serif" font-size="14.00">edit</text>
<text text-anchor="start" x="71.5689" y="137.466" font-family="Times,serif" font-size="14.00">index</text>
<text text-anchor="start" x="71.5689" y="151.466" font-family="Times,serif" font-size="14.00">new</text>
<text text-anchor="start" x="71.5689" y="165.466" font-family="Times,serif" font-size="14.00">show</text>
<text text-anchor="start" x="71.5689" y="179.466" font-family="Times,serif" font-size="14.00">update</text>
<polyline fill="none" stroke="black" points="63.5689,186.266 201.652,186.266 "/>
<polyline fill="none" stroke="black" points="63.5689,210.266 201.652,210.266 "/>
<text text-anchor="start" x="71.5689" y="225.466" font-family="Times,serif" font-size="14.00">_layout</text>
<text text-anchor="start" x="71.5689" y="239.466" font-family="Times,serif" font-size="14.00">media_info_params</text>
<text text-anchor="start" x="71.5689" y="253.466" font-family="Times,serif" font-size="14.00">set_media_info</text>
</g>
<!-- ApplicationController&#45;&gt;MediaInfosController -->
<g id="edge1" class="edge"><title>ApplicationController&#45;&gt;MediaInfosController</title>
<path fill="none" stroke="black" d="M45.8838,87.9394C51.6687,92.6971 57.5417,97.5273 63.3635,102.315"/>
</g>
<!-- ProductsController -->
<g id="node4" class="node"><title>ProductsController</title>
<path fill="none" stroke="black" d="M-69.0167,265.444C-69.0167,265.444 29.5282,265.444 29.5282,265.444 35.5282,265.444 41.5282,259.444 41.5282,253.444 41.5282,253.444 41.5282,173.444 41.5282,173.444 41.5282,167.444 35.5282,161.444 29.5282,161.444 29.5282,161.444 -69.0167,161.444 -69.0167,161.444 -75.0167,161.444 -81.0167,167.444 -81.0167,173.444 -81.0167,173.444 -81.0167,253.444 -81.0167,253.444 -81.0167,259.444 -75.0167,265.444 -69.0167,265.444"/>
<text text-anchor="middle" x="-19.7442" y="176.644" font-family="Times,serif" font-size="14.00">ProductsController</text>
<polyline fill="none" stroke="black" points="-81.0167,183.444 41.5282,183.444 "/>
<text text-anchor="start" x="-73.0167" y="198.644" font-family="Times,serif" font-size="14.00">show</text>
<polyline fill="none" stroke="black" points="-81.0167,205.444 41.5282,205.444 "/>
<polyline fill="none" stroke="black" points="-81.0167,229.444 41.5282,229.444 "/>
<text text-anchor="start" x="-73.0167" y="244.644" font-family="Times,serif" font-size="14.00">_layout</text>
<text text-anchor="start" x="-73.0167" y="258.644" font-family="Times,serif" font-size="14.00">identify_product</text>
</g>
<!-- ApplicationController&#45;&gt;ProductsController -->
<g id="edge2" class="edge"><title>ApplicationController&#45;&gt;ProductsController</title>
<path fill="none" stroke="black" d="M-19.0403,87.9073C-19.1701,111.05 -19.3217,138.096 -19.451,161.145"/>
</g>
<!-- StoriesController -->
<g id="node5" class="node"><title>StoriesController</title>
<path fill="none" stroke="black" d="M-213.452,31.674C-213.452,31.674 -125.017,31.674 -125.017,31.674 -119.017,31.674 -113.017,25.674 -113.017,19.674 -113.017,19.674 -113.017,-200.326 -113.017,-200.326 -113.017,-206.326 -119.017,-212.326 -125.017,-212.326 -125.017,-212.326 -213.452,-212.326 -213.452,-212.326 -219.452,-212.326 -225.452,-206.326 -225.452,-200.326 -225.452,-200.326 -225.452,19.674 -225.452,19.674 -225.452,25.674 -219.452,31.674 -213.452,31.674"/>
<text text-anchor="middle" x="-169.234" y="-197.126" font-family="Times,serif" font-size="14.00">StoriesController</text>
<polyline fill="none" stroke="black" points="-225.452,-190.326 -113.017,-190.326 "/>
<text text-anchor="start" x="-217.452" y="-175.126" font-family="Times,serif" font-size="14.00">create</text>
<text text-anchor="start" x="-217.452" y="-161.126" font-family="Times,serif" font-size="14.00">destroy</text>
<text text-anchor="start" x="-217.452" y="-147.126" font-family="Times,serif" font-size="14.00">edit</text>
<text text-anchor="start" x="-217.452" y="-133.126" font-family="Times,serif" font-size="14.00">index</text>
<text text-anchor="start" x="-217.452" y="-119.126" font-family="Times,serif" font-size="14.00">new</text>
<text text-anchor="start" x="-217.452" y="-105.126" font-family="Times,serif" font-size="14.00">scrape</text>
<text text-anchor="start" x="-217.452" y="-91.126" font-family="Times,serif" font-size="14.00">set_scrape_fields</text>
<text text-anchor="start" x="-217.452" y="-77.126" font-family="Times,serif" font-size="14.00">show</text>
<text text-anchor="start" x="-217.452" y="-63.126" font-family="Times,serif" font-size="14.00">update</text>
<polyline fill="none" stroke="black" points="-225.452,-56.326 -113.017,-56.326 "/>
<polyline fill="none" stroke="black" points="-225.452,-32.326 -113.017,-32.326 "/>
<text text-anchor="start" x="-217.452" y="-17.126" font-family="Times,serif" font-size="14.00">_layout</text>
<text text-anchor="start" x="-217.452" y="-3.12595" font-family="Times,serif" font-size="14.00">get_domain_info</text>
<text text-anchor="start" x="-217.452" y="10.874" font-family="Times,serif" font-size="14.00">set_story</text>
<text text-anchor="start" x="-217.452" y="24.874" font-family="Times,serif" font-size="14.00">story_params</text>
</g>
<!-- ApplicationController&#45;&gt;StoriesController -->
<g id="edge3" class="edge"><title>ApplicationController&#45;&gt;StoriesController</title>
<path fill="none" stroke="black" d="M-82.5645,-18.2712C-92.6584,-26.663 -103.033,-35.2883 -112.939,-43.5238"/>
</g>
<!-- UrlsController -->
<g id="node6" class="node"><title>UrlsController</title>
<path fill="none" stroke="black" d="M96.4358,11.7651C96.4358,11.7651 170.091,11.7651 170.091,11.7651 176.091,11.7651 182.091,5.76506 182.091,-0.23494 182.091,-0.23494 182.091,-178.235 182.091,-178.235 182.091,-184.235 176.091,-190.235 170.091,-190.235 170.091,-190.235 96.4358,-190.235 96.4358,-190.235 90.4358,-190.235 84.4358,-184.235 84.4358,-178.235 84.4358,-178.235 84.4358,-0.23494 84.4358,-0.23494 84.4358,5.76506 90.4358,11.7651 96.4358,11.7651"/>
<text text-anchor="middle" x="133.263" y="-175.035" font-family="Times,serif" font-size="14.00">UrlsController</text>
<polyline fill="none" stroke="black" points="84.4358,-168.235 182.091,-168.235 "/>
<text text-anchor="start" x="92.4358" y="-153.035" font-family="Times,serif" font-size="14.00">create</text>
<text text-anchor="start" x="92.4358" y="-139.035" font-family="Times,serif" font-size="14.00">destroy</text>
<text text-anchor="start" x="92.4358" y="-125.035" font-family="Times,serif" font-size="14.00">edit</text>
<text text-anchor="start" x="92.4358" y="-111.035" font-family="Times,serif" font-size="14.00">index</text>
<text text-anchor="start" x="92.4358" y="-97.0349" font-family="Times,serif" font-size="14.00">new</text>
<text text-anchor="start" x="92.4358" y="-83.0349" font-family="Times,serif" font-size="14.00">show</text>
<text text-anchor="start" x="92.4358" y="-69.0349" font-family="Times,serif" font-size="14.00">update</text>
<polyline fill="none" stroke="black" points="84.4358,-62.2349 182.091,-62.2349 "/>
<polyline fill="none" stroke="black" points="84.4358,-38.2349 182.091,-38.2349 "/>
<text text-anchor="start" x="92.4358" y="-23.0349" font-family="Times,serif" font-size="14.00">_layout</text>
<text text-anchor="start" x="92.4358" y="-9.03494" font-family="Times,serif" font-size="14.00">set_url</text>
<text text-anchor="start" x="92.4358" y="4.96506" font-family="Times,serif" font-size="14.00">url_params</text>
</g>
<!-- ApplicationController&#45;&gt;UrlsController -->
<g id="edge4" class="edge"><title>ApplicationController&#45;&gt;UrlsController</title>
<path fill="none" stroke="black" d="M46.6039,-18.5283C59.1567,-28.7703 72.1051,-39.335 84.0427,-49.0751"/>
</g>
<!-- UsersController -->
<g id="node7" class="node"><title>UsersController</title>
<path fill="none" stroke="black" d="M-58.2972,-71.7552C-58.2972,-71.7552 23.1305,-71.7552 23.1305,-71.7552 29.1305,-71.7552 35.1305,-77.7552 35.1305,-83.7552 35.1305,-83.7552 35.1305,-205.755 35.1305,-205.755 35.1305,-211.755 29.1305,-217.755 23.1305,-217.755 23.1305,-217.755 -58.2972,-217.755 -58.2972,-217.755 -64.2972,-217.755 -70.2972,-211.755 -70.2972,-205.755 -70.2972,-205.755 -70.2972,-83.7552 -70.2972,-83.7552 -70.2972,-77.7552 -64.2972,-71.7552 -58.2972,-71.7552"/>
<text text-anchor="middle" x="-17.5834" y="-202.555" font-family="Times,serif" font-size="14.00">UsersController</text>
<polyline fill="none" stroke="black" points="-70.2972,-195.755 35.1305,-195.755 "/>
<text text-anchor="start" x="-62.2972" y="-180.555" font-family="Times,serif" font-size="14.00">destroy</text>
<text text-anchor="start" x="-62.2972" y="-166.555" font-family="Times,serif" font-size="14.00">index</text>
<text text-anchor="start" x="-62.2972" y="-152.555" font-family="Times,serif" font-size="14.00">show</text>
<text text-anchor="start" x="-62.2972" y="-138.555" font-family="Times,serif" font-size="14.00">update</text>
<polyline fill="none" stroke="black" points="-70.2972,-131.755 35.1305,-131.755 "/>
<polyline fill="none" stroke="black" points="-70.2972,-107.755 35.1305,-107.755 "/>
<text text-anchor="start" x="-62.2972" y="-92.5552" font-family="Times,serif" font-size="14.00">_layout</text>
<text text-anchor="start" x="-62.2972" y="-78.5552" font-family="Times,serif" font-size="14.00">secure_params</text>
</g>
<!-- ApplicationController&#45;&gt;UsersController -->
<g id="edge5" class="edge"><title>ApplicationController&#45;&gt;UsersController</title>
<path fill="none" stroke="black" d="M-18.3978,-18.5943C-18.2904,-35.2366 -18.17,-53.8874 -18.0554,-71.6378"/>
</g>
<!-- VisitorsController -->
<g id="node8" class="node"><title>VisitorsController</title>
<path fill="none" stroke="black" d="M-216.454,204.149C-216.454,204.149 -123.405,204.149 -123.405,204.149 -117.405,204.149 -111.405,198.149 -111.405,192.149 -111.405,192.149 -111.405,124.149 -111.405,124.149 -111.405,118.149 -117.405,112.149 -123.405,112.149 -123.405,112.149 -216.454,112.149 -216.454,112.149 -222.454,112.149 -228.454,118.149 -228.454,124.149 -228.454,124.149 -228.454,192.149 -228.454,192.149 -228.454,198.149 -222.454,204.149 -216.454,204.149"/>
<text text-anchor="middle" x="-169.93" y="127.349" font-family="Times,serif" font-size="14.00">VisitorsController</text>
<polyline fill="none" stroke="black" points="-228.454,134.149 -111.405,134.149 "/>
<polyline fill="none" stroke="black" points="-228.454,158.149 -111.405,158.149 "/>
<polyline fill="none" stroke="black" points="-228.454,182.149 -111.405,182.149 "/>
<text text-anchor="start" x="-220.454" y="197.349" font-family="Times,serif" font-size="14.00">_layout</text>
</g>
<!-- ApplicationController&#45;&gt;VisitorsController -->
<g id="edge6" class="edge"><title>ApplicationController&#45;&gt;VisitorsController</title>
<path fill="none" stroke="black" d="M-83.7368,87.8205C-93.6609,95.918 -103.834,104.218 -113.552,112.148"/>
</g>
</g>
</svg>
