<?xml version="1.0" encoding="UTF-8" standalone="no"?>
<!DOCTYPE svg PUBLIC "-//W3C//DTD SVG 1.1//EN"
 "http://www.w3.org/Graphics/SVG/1.1/DTD/svg11.dtd">
<!-- Generated by graphviz version 2.38.0 (20140413.2041)
 -->
<!-- Title: models_diagram Pages: 1 -->
<svg width="662pt" height="772pt"
 viewBox="0.00 0.00 661.73 772.00" xmlns="http://www.w3.org/2000/svg" xmlns:xlink="http://www.w3.org/1999/xlink">
<g id="graph0" class="graph" transform="scale(1 1) rotate(0) translate(4 768)">
<title>models_diagram</title>
<polygon fill="white" stroke="none" points="-4,4 -4,-768 657.728,-768 657.728,4 -4,4"/>
<!-- _diagram_info -->
<g id="node1" class="node"><title>_diagram_info</title>
<text text-anchor="start" x="8" y="-749.6" font-family="Times,serif" font-size="13.00">Models diagram</text>
<text text-anchor="start" x="8" y="-736.6" font-family="Times,serif" font-size="13.00">Date: Sep 25 2014 &#45; 15:14</text>
<text text-anchor="start" x="8" y="-723.6" font-family="Times,serif" font-size="13.00">Migration version: 20140922211334</text>
<text text-anchor="start" x="8" y="-710.6" font-family="Times,serif" font-size="13.00">Generated by RailRoady 1.1.2</text>
<text text-anchor="start" x="8" y="-697.6" font-family="Times,serif" font-size="13.00">http://railroady.prestonlee.com</text>
</g>
<!-- Image -->
<g id="node2" class="node"><title>Image</title>
<path fill="none" stroke="black" d="M81.9443,-0.5C81.9443,-0.5 190.955,-0.5 190.955,-0.5 196.955,-0.5 202.955,-6.5 202.955,-12.5 202.955,-12.5 202.955,-88.5 202.955,-88.5 202.955,-94.5 196.955,-100.5 190.955,-100.5 190.955,-100.5 81.9443,-100.5 81.9443,-100.5 75.9443,-100.5 69.9443,-94.5 69.9443,-88.5 69.9443,-88.5 69.9443,-12.5 69.9443,-12.5 69.9443,-6.5 75.9443,-0.5 81.9443,-0.5"/>
<text text-anchor="middle" x="136.45" y="-85.3" font-family="Times,serif" font-size="14.00">Image</text>
<polyline fill="none" stroke="black" points="69.9443,-78.5 202.955,-78.5 "/>
<text text-anchor="start" x="77.9443" y="-63.3" font-family="Times,serif" font-size="14.00">id :integer</text>
<text text-anchor="start" x="77.9443" y="-49.3" font-family="Times,serif" font-size="14.00">src_url :text</text>
<text text-anchor="start" x="77.9443" y="-35.3" font-family="Times,serif" font-size="14.00">alt_text :text</text>
<text text-anchor="start" x="77.9443" y="-21.3" font-family="Times,serif" font-size="14.00">created_at :datetime</text>
<text text-anchor="start" x="77.9443" y="-7.3" font-family="Times,serif" font-size="14.00">updated_at :datetime</text>
</g>
<!-- MediaInfo -->
<g id="node3" class="node"><title>MediaInfo</title>
<path fill="none" stroke="black" d="M80.9443,-463.5C80.9443,-463.5 189.955,-463.5 189.955,-463.5 195.955,-463.5 201.955,-469.5 201.955,-475.5 201.955,-475.5 201.955,-565.5 201.955,-565.5 201.955,-571.5 195.955,-577.5 189.955,-577.5 189.955,-577.5 80.9443,-577.5 80.9443,-577.5 74.9443,-577.5 68.9443,-571.5 68.9443,-565.5 68.9443,-565.5 68.9443,-475.5 68.9443,-475.5 68.9443,-469.5 74.9443,-463.5 80.9443,-463.5"/>
<text text-anchor="middle" x="135.45" y="-562.3" font-family="Times,serif" font-size="14.00">MediaInfo</text>
<polyline fill="none" stroke="black" points="68.9443,-555.5 201.955,-555.5 "/>
<text text-anchor="start" x="76.9443" y="-540.3" font-family="Times,serif" font-size="14.00">id :integer</text>
<text text-anchor="start" x="76.9443" y="-526.3" font-family="Times,serif" font-size="14.00">media_type :string</text>
<text text-anchor="start" x="76.9443" y="-512.3" font-family="Times,serif" font-size="14.00">url_id :string</text>
<text text-anchor="start" x="76.9443" y="-498.3" font-family="Times,serif" font-size="14.00">media_desc :string</text>
<text text-anchor="start" x="76.9443" y="-484.3" font-family="Times,serif" font-size="14.00">created_at :datetime</text>
<text text-anchor="start" x="76.9443" y="-470.3" font-family="Times,serif" font-size="14.00">updated_at :datetime</text>
</g>
<!-- Url -->
<g id="node5" class="node"><title>Url</title>
<path fill="none" stroke="black" d="M154.613,-137.5C154.613,-137.5 310.286,-137.5 310.286,-137.5 316.286,-137.5 322.286,-143.5 322.286,-149.5 322.286,-149.5 322.286,-337.5 322.286,-337.5 322.286,-343.5 316.286,-349.5 310.286,-349.5 310.286,-349.5 154.613,-349.5 154.613,-349.5 148.613,-349.5 142.613,-343.5 142.613,-337.5 142.613,-337.5 142.613,-149.5 142.613,-149.5 142.613,-143.5 148.613,-137.5 154.613,-137.5"/>
<text text-anchor="middle" x="232.45" y="-334.3" font-family="Times,serif" font-size="14.00">Url</text>
<polyline fill="none" stroke="black" points="142.613,-327.5 322.286,-327.5 "/>
<text text-anchor="start" x="150.613" y="-312.3" font-family="Times,serif" font-size="14.00">id :integer</text>
<text text-anchor="start" x="150.613" y="-298.3" font-family="Times,serif" font-size="14.00">url_type :string</text>
<text text-anchor="start" x="150.613" y="-284.3" font-family="Times,serif" font-size="14.00">url_title :string</text>
<text text-anchor="start" x="150.613" y="-270.3" font-family="Times,serif" font-size="14.00">url_desc :text</text>
<text text-anchor="start" x="150.613" y="-256.3" font-family="Times,serif" font-size="14.00">created_at :datetime</text>
<text text-anchor="start" x="150.613" y="-242.3" font-family="Times,serif" font-size="14.00">updated_at :datetime</text>
<text text-anchor="start" x="150.613" y="-228.3" font-family="Times,serif" font-size="14.00">url_keywords :text</text>
<text text-anchor="start" x="150.613" y="-214.3" font-family="Times,serif" font-size="14.00">story_id :string</text>
<text text-anchor="start" x="150.613" y="-200.3" font-family="Times,serif" font-size="14.00">url_domain :string</text>
<text text-anchor="start" x="150.613" y="-186.3" font-family="Times,serif" font-size="14.00">url_full :string</text>
<text text-anchor="start" x="150.613" y="-172.3" font-family="Times,serif" font-size="14.00">url_title_track :boolean</text>
<text text-anchor="start" x="150.613" y="-158.3" font-family="Times,serif" font-size="14.00">url_desc_track :boolean</text>
<text text-anchor="start" x="150.613" y="-144.3" font-family="Times,serif" font-size="14.00">url_keywords_track :boolean</text>
</g>
<!-- MediaInfo&#45;&gt;Url -->
<g id="edge2" class="edge"><title>MediaInfo&#45;&gt;Url</title>
<path fill="none" stroke="#9aa942" d="M158.075,-455.357C168.382,-426.136 180.893,-390.666 192.691,-357.218"/>
<ellipse fill="none" stroke="#9aa942" cx="156.644" cy="-459.414" rx="4.00001" ry="4.00001"/>
<ellipse fill="#9aa942" stroke="#9aa942" cx="194.024" cy="-353.44" rx="4.00001" ry="4.00001"/>
</g>
<!-- Story -->
<g id="node4" class="node"><title>Story</title>
<path fill="none" stroke="black" d="M231.717,-386.5C231.717,-386.5 381.183,-386.5 381.183,-386.5 387.183,-386.5 393.183,-392.5 393.183,-398.5 393.183,-398.5 393.183,-642.5 393.183,-642.5 393.183,-648.5 387.183,-654.5 381.183,-654.5 381.183,-654.5 231.717,-654.5 231.717,-654.5 225.717,-654.5 219.717,-648.5 219.717,-642.5 219.717,-642.5 219.717,-398.5 219.717,-398.5 219.717,-392.5 225.717,-386.5 231.717,-386.5"/>
<text text-anchor="middle" x="306.45" y="-639.3" font-family="Times,serif" font-size="14.00">Story</text>
<polyline fill="none" stroke="black" points="219.717,-632.5 393.183,-632.5 "/>
<text text-anchor="start" x="227.717" y="-617.3" font-family="Times,serif" font-size="14.00">id :integer</text>
<text text-anchor="start" x="227.717" y="-603.3" font-family="Times,serif" font-size="14.00">media_id :string</text>
<text text-anchor="start" x="227.717" y="-589.3" font-family="Times,serif" font-size="14.00">story_type :string</text>
<text text-anchor="start" x="227.717" y="-575.3" font-family="Times,serif" font-size="14.00">author :string</text>
<text text-anchor="start" x="227.717" y="-561.3" font-family="Times,serif" font-size="14.00">created_at :datetime</text>
<text text-anchor="start" x="227.717" y="-547.3" font-family="Times,serif" font-size="14.00">updated_at :datetime</text>
<text text-anchor="start" x="227.717" y="-533.3" font-family="Times,serif" font-size="14.00">story_month :integer</text>
<text text-anchor="start" x="227.717" y="-519.3" font-family="Times,serif" font-size="14.00">story_date :integer</text>
<text text-anchor="start" x="227.717" y="-505.3" font-family="Times,serif" font-size="14.00">story_year :integer</text>
<text text-anchor="start" x="227.717" y="-491.3" font-family="Times,serif" font-size="14.00">editor_tagline :text</text>
<text text-anchor="start" x="227.717" y="-477.3" font-family="Times,serif" font-size="14.00">location_code :text</text>
<text text-anchor="start" x="227.717" y="-463.3" font-family="Times,serif" font-size="14.00">category_code :string</text>
<text text-anchor="start" x="227.717" y="-449.3" font-family="Times,serif" font-size="14.00">author_track :boolean</text>
<text text-anchor="start" x="227.717" y="-435.3" font-family="Times,serif" font-size="14.00">story_year_track :boolean</text>
<text text-anchor="start" x="227.717" y="-421.3" font-family="Times,serif" font-size="14.00">story_month_track :boolean</text>
<text text-anchor="start" x="227.717" y="-407.3" font-family="Times,serif" font-size="14.00">story_date_track :boolean</text>
<text text-anchor="start" x="227.717" y="-393.3" font-family="Times,serif" font-size="14.00">scraped_type :string</text>
</g>
<!-- Story&#45;&gt;Url -->
<g id="edge4" class="edge"><title>Story&#45;&gt;Url</title>
<path fill="none" stroke="#636f8e" d="M268.54,-378.62C266.82,-372.229 265.103,-365.848 263.404,-359.532"/>
<ellipse fill="none" stroke="#636f8e" cx="269.602" cy="-382.568" rx="4.00001" ry="4.00001"/>
<polygon fill="#636f8e" stroke="#636f8e" points="263.348,-359.325 265.095,-348.5 262.049,-354.497 260.75,-349.669 260.75,-349.669 260.75,-349.669 262.049,-354.497 256.404,-350.838 263.348,-359.325 263.348,-359.325"/>
</g>
<!-- Url&#45;&gt;Image -->
<g id="edge6" class="edge"><title>Url&#45;&gt;Image</title>
<path fill="none" stroke="#92b2f6" d="M175.834,-129.858C172.436,-123.098 169.099,-116.458 165.892,-110.077"/>
<ellipse fill="none" stroke="#92b2f6" cx="177.739" cy="-133.649" rx="4.00002" ry="4.00002"/>
<polygon fill="#92b2f6" stroke="#92b2f6" points="165.785,-109.866 165.315,-98.9099 163.54,-105.398 161.294,-100.931 161.294,-100.931 161.294,-100.931 163.54,-105.398 157.274,-102.952 165.785,-109.866 165.785,-109.866"/>
</g>
<!-- User -->
<g id="node6" class="node"><title>User</title>
<path fill="none" stroke="black" d="M461.172,-400.5C461.172,-400.5 641.728,-400.5 641.728,-400.5 647.728,-400.5 653.728,-406.5 653.728,-412.5 653.728,-412.5 653.728,-628.5 653.728,-628.5 653.728,-634.5 647.728,-640.5 641.728,-640.5 641.728,-640.5 461.172,-640.5 461.172,-640.5 455.172,-640.5 449.172,-634.5 449.172,-628.5 449.172,-628.5 449.172,-412.5 449.172,-412.5 449.172,-406.5 455.172,-400.5 461.172,-400.5"/>
<text text-anchor="middle" x="551.45" y="-625.3" font-family="Times,serif" font-size="14.00">User</text>
<polyline fill="none" stroke="black" points="449.172,-618.5 653.728,-618.5 "/>
<text text-anchor="start" x="457.172" y="-603.3" font-family="Times,serif" font-size="14.00">id :integer</text>
<text text-anchor="start" x="457.172" y="-589.3" font-family="Times,serif" font-size="14.00">email :string</text>
<text text-anchor="start" x="457.172" y="-575.3" font-family="Times,serif" font-size="14.00">encrypted_password :string</text>
<text text-anchor="start" x="457.172" y="-561.3" font-family="Times,serif" font-size="14.00">reset_password_token :string</text>
<text text-anchor="start" x="457.172" y="-547.3" font-family="Times,serif" font-size="14.00">reset_password_sent_at :datetime</text>
<text text-anchor="start" x="457.172" y="-533.3" font-family="Times,serif" font-size="14.00">remember_created_at :datetime</text>
<text text-anchor="start" x="457.172" y="-519.3" font-family="Times,serif" font-size="14.00">sign_in_count :integer</text>
<text text-anchor="start" x="457.172" y="-505.3" font-family="Times,serif" font-size="14.00">current_sign_in_at :datetime</text>
<text text-anchor="start" x="457.172" y="-491.3" font-family="Times,serif" font-size="14.00">last_sign_in_at :datetime</text>
<text text-anchor="start" x="457.172" y="-477.3" font-family="Times,serif" font-size="14.00">current_sign_in_ip :string</text>
<text text-anchor="start" x="457.172" y="-463.3" font-family="Times,serif" font-size="14.00">last_sign_in_ip :string</text>
<text text-anchor="start" x="457.172" y="-449.3" font-family="Times,serif" font-size="14.00">created_at :datetime</text>
<text text-anchor="start" x="457.172" y="-435.3" font-family="Times,serif" font-size="14.00">updated_at :datetime</text>
<text text-anchor="start" x="457.172" y="-421.3" font-family="Times,serif" font-size="14.00">name :string</text>
<text text-anchor="start" x="457.172" y="-407.3" font-family="Times,serif" font-size="14.00">role :integer</text>
</g>
<!-- ActiveRecord::Base -->
<g id="node7" class="node"><title>ActiveRecord::Base</title>
<ellipse fill="none" stroke="black" cx="306.45" cy="-727.5" rx="81.1422" ry="18"/>
<text text-anchor="middle" x="306.45" y="-723.3" font-family="Times,serif" font-size="14.00">ActiveRecord::Base</text>
</g>
<!-- ActiveRecord::Base&#45;&gt;Image -->
<g id="edge1" class="edge"><title>ActiveRecord::Base&#45;&gt;Image</title>
<path fill="none" stroke="black" d="M271.001,-711.29C254.34,-704.5 234.084,-696.752 215.45,-691 147.459,-670.015 103.748,-710.685 59.4497,-655 -72.5558,-489.062 49.821,-212.26 108.792,-100.509"/>
</g>
<!-- ActiveRecord::Base&#45;&gt;MediaInfo -->
<g id="edge3" class="edge"><title>ActiveRecord::Base&#45;&gt;MediaInfo</title>
<path fill="none" stroke="black" d="M278.75,-710.323C258.115,-697.287 230.21,-677.473 210.45,-655 190.35,-632.141 173.227,-603.024 160.438,-577.819"/>
</g>
<!-- ActiveRecord::Base&#45;&gt;Story -->
<g id="edge5" class="edge"><title>ActiveRecord::Base&#45;&gt;Story</title>
<path fill="none" stroke="black" d="M306.45,-709.374C306.45,-696.095 306.45,-676.325 306.45,-654.529"/>
</g>
<!-- ActiveRecord::Base&#45;&gt;Url -->
<g id="edge7" class="edge"><title>ActiveRecord::Base&#45;&gt;Url</title>
<path fill="none" stroke="black" d="M341.114,-711.008C363.079,-699.132 389.675,-680.443 402.45,-655 429.272,-601.578 427.82,-440.127 402.45,-386 385.419,-349.665 353.965,-319.417 322.701,-296.339"/>
</g>
<!-- ActiveRecord::Base&#45;&gt;User -->
<g id="edge8" class="edge"><title>ActiveRecord::Base&#45;&gt;User</title>
<path fill="none" stroke="black" d="M341.622,-711.142C368.785,-698.34 406.498,-678.449 435.45,-655 441.057,-650.459 446.612,-645.626 452.077,-640.594"/>
</g>
</g>
</svg>
