<?xml version="1.0" encoding="UTF-8" standalone="no"?>
<!DOCTYPE svg PUBLIC "-//W3C//DTD SVG 1.1//EN"
 "http://www.w3.org/Graphics/SVG/1.1/DTD/svg11.dtd">
<!-- Generated by graphviz version 2.38.0 (20140413.2041)
 -->
<!-- Title: models_diagram Pages: 1 -->
<svg width="453pt" height="297pt"
 viewBox="0.00 0.00 453.45 297.00" xmlns="http://www.w3.org/2000/svg" xmlns:xlink="http://www.w3.org/1999/xlink">
<g id="graph0" class="graph" transform="scale(1 1) rotate(0) translate(4 293)">
<title>models_diagram</title>
<polygon fill="white" stroke="none" points="-4,4 -4,-293 449.45,-293 449.45,4 -4,4"/>
<!-- _diagram_info -->
<g id="node1" class="node"><title>_diagram_info</title>
<text text-anchor="start" x="8" y="-274.6" font-family="Times,serif" font-size="13.00">Models diagram</text>
<text text-anchor="start" x="8" y="-261.6" font-family="Times,serif" font-size="13.00">Date: Sep 25 2014 &#45; 15:14</text>
<text text-anchor="start" x="8" y="-248.6" font-family="Times,serif" font-size="13.00">Migration version: 20140922211334</text>
<text text-anchor="start" x="8" y="-235.6" font-family="Times,serif" font-size="13.00">Generated by RailRoady 1.1.2</text>
<text text-anchor="start" x="8" y="-222.6" font-family="Times,serif" font-size="13.00">http://railroady.prestonlee.com</text>
</g>
<!-- Image -->
<g id="node2" class="node"><title>Image</title>
<ellipse fill="none" stroke="black" cx="173.45" cy="-18" rx="32.4063" ry="18"/>
<text text-anchor="middle" x="173.45" y="-13.8" font-family="Times,serif" font-size="14.00">Image</text>
</g>
<!-- MediaInfo -->
<g id="node3" class="node"><title>MediaInfo</title>
<ellipse fill="none" stroke="black" cx="211.45" cy="-162" rx="47.365" ry="18"/>
<text text-anchor="middle" x="211.45" y="-157.8" font-family="Times,serif" font-size="14.00">MediaInfo</text>
</g>
<!-- Url -->
<g id="node5" class="node"><title>Url</title>
<ellipse fill="none" stroke="black" cx="258.45" cy="-90" rx="27" ry="18"/>
<text text-anchor="middle" x="258.45" y="-85.8" font-family="Times,serif" font-size="14.00">Url</text>
</g>
<!-- MediaInfo&#45;&gt;Url -->
<g id="edge2" class="edge"><title>MediaInfo&#45;&gt;Url</title>
<path fill="none" stroke="#e5f0cf" d="M227.085,-137.713C232.269,-129.993 238.029,-121.413 243.185,-113.735"/>
<ellipse fill="none" stroke="#e5f0cf" cx="224.818" cy="-141.09" rx="4.00002" ry="4.00002"/>
<ellipse fill="#e5f0cf" stroke="#e5f0cf" cx="245.485" cy="-110.309" rx="4.00002" ry="4.00002"/>
</g>
<!-- Story -->
<g id="node4" class="node"><title>Story</title>
<ellipse fill="none" stroke="black" cx="306.45" cy="-162" rx="29.0429" ry="18"/>
<text text-anchor="middle" x="306.45" y="-157.8" font-family="Times,serif" font-size="14.00">Story</text>
</g>
<!-- Story&#45;&gt;Url -->
<g id="edge4" class="edge"><title>Story&#45;&gt;Url</title>
<path fill="none" stroke="#388f29" d="M290.89,-138.308C285.822,-130.917 280.178,-122.687 275.037,-115.19"/>
<ellipse fill="none" stroke="#388f29" cx="293.296" cy="-141.817" rx="4.00002" ry="4.00002"/>
<polygon fill="#388f29" stroke="#388f29" points="274.954,-115.069 273.01,-104.276 272.126,-110.945 269.299,-106.821 269.299,-106.821 269.299,-106.821 272.126,-110.945 265.587,-109.366 274.954,-115.069 274.954,-115.069"/>
</g>
<!-- Url&#45;&gt;Image -->
<g id="edge6" class="edge"><title>Url&#45;&gt;Image</title>
<path fill="none" stroke="#4dea1f" d="M235.509,-70.1074C224.23,-60.8195 210.602,-49.596 198.993,-40.0354"/>
<ellipse fill="none" stroke="#4dea1f" cx="238.973" cy="-72.9604" rx="4.00002" ry="4.00002"/>
<polygon fill="#4dea1f" stroke="#4dea1f" points="198.678,-39.7763 193.819,-29.9455 194.818,-36.5977 190.959,-33.4192 190.959,-33.4192 190.959,-33.4192 194.818,-36.5977 188.098,-36.8929 198.678,-39.7763 198.678,-39.7763"/>
</g>
<!-- User -->
<g id="node6" class="node"><title>User</title>
<ellipse fill="none" stroke="black" cx="418.45" cy="-162" rx="27" ry="18"/>
<text text-anchor="middle" x="418.45" y="-157.8" font-family="Times,serif" font-size="14.00">User</text>
</g>
<!-- ApplicationRecord -->
<g id="node7" class="node"><title>ApplicationRecord</title>
<ellipse fill="none" stroke="black" cx="306.45" cy="-252.5" rx="81.1422" ry="18"/>
<text text-anchor="middle" x="306.45" y="-248.3" font-family="Times,serif" font-size="14.00">ApplicationRecord</text>
</g>
<!-- ApplicationRecord&#45;&gt;Image -->
<g id="edge1" class="edge"><title>ApplicationRecord&#45;&gt;Image</title>
<path fill="none" stroke="black" d="M269.383,-236.397C226.847,-218.694 162.062,-190.447 155.45,-180 126.569,-134.371 151.135,-66.6228 165.222,-35.6007"/>
</g>
<!-- ApplicationRecord&#45;&gt;MediaInfo -->
<g id="edge3" class="edge"><title>ApplicationRecord&#45;&gt;MediaInfo</title>
<path fill="none" stroke="black" d="M288.581,-234.854C271.381,-218.831 245.552,-194.769 228.598,-178.975"/>
</g>
<!-- ApplicationRecord&#45;&gt;Story -->
<g id="edge5" class="edge"><title>ApplicationRecord&#45;&gt;Story</title>
<path fill="none" stroke="black" d="M306.45,-234.436C306.45,-218.765 306.45,-195.666 306.45,-180.011"/>
</g>
<!-- ApplicationRecord&#45;&gt;Url -->
<g id="edge7" class="edge"><title>ApplicationRecord&#45;&gt;Url</title>
<path fill="none" stroke="black" d="M320.817,-234.734C337.652,-212.928 361.241,-174.073 344.45,-144 331.368,-120.571 303.204,-106.216 282.659,-98.4572"/>
</g>
<!-- ApplicationRecord&#45;&gt;User -->
<g id="edge8" class="edge"><title>ApplicationRecord&#45;&gt;User</title>
<path fill="none" stroke="black" d="M327.254,-235.061C348.762,-218.066 381.92,-191.865 401.771,-176.179"/>
</g>
</g>
</svg>
